<?xml version="1.0" encoding="utf-8" ?>
<!DOCTYPE SVG PUBLIC "-//W3C//DTD SVG 1.1//EN" "http://www.w3.org/Graphics/SVG/1.1/DTD/svg11.dtd">
<svg version="1.1" id="Laag_1" xmlns="http://www.w3.org/2000/svg" xmlns:xlink="http://www.w3.org/1999/xlink" x="0px" y="0px"
	 viewBox="0 0 80 32.4" enable-background="new 0 0 80 32.4" xml:space="preserve">
<g>
<path fill="#E1141D" d="M46.6,17.6c0,0.6,0.3,0.9,0.9,0.9h3.5v-1.7h-3.5C47,16.7,46.6,17,46.6,17.6z" />
<path fill="#E1141D" d="M74.3,0H5.7C2.6,0,0,2.6,0,5.7l0,26.7h80l0-26.7C80,2.6,77.4,0,74.3,0z M19.2,18.3c0,0.3-0.2,0.5-0.5,0.5
		h-8c-0.3,0-0.5-0.2-0.5-0.5v-1.4c0-0.3,0.2-0.5,0.5-0.5h8c0.3,0,0.5,0.2,0.5,0.5V18.3z M19.2,14.3c0,0.3-0.2,0.5-0.5,0.5h-8
		c-0.3,0-0.5-0.2-0.5-0.5v-1.4c0-0.3,0.2-0.5,0.5-0.5h8c0.3,0,0.5,0.2,0.5,0.5V14.3z M32.6,20.3c0,0.3-0.2,0.5-0.5,0.5h-4
		c-3.2,0-4.5-1.6-4.5-5.2c0-3.6,1.2-5.2,4.5-5.2h4c0.3,0,0.5,0.2,0.5,0.5v1.4c0,0.3-0.2,0.5-0.5,0.5h-3.7c-1.3,0-2,0.5-2.1,1.7h5.1
		c0.3,0,0.5,0.2,0.5,0.5v1.4c0,0.3-0.2,0.5-0.5,0.5h-5.1c0.2,1.2,0.8,1.6,2.1,1.6h3.7c0.3,0,0.5,0.2,0.5,0.5V20.3z M43.7,20.7h-2.2
		c-0.3,0-0.4-0.2-0.5-0.3l-2.3-3l-2.3,3c-0.1,0.2-0.3,0.3-0.5,0.3h-2.1c-0.2,0-0.4-0.2-0.2-0.5l3.6-4.8l-3.5-4.6
		c-0.2-0.2,0-0.5,0.2-0.5h2.2c0.3,0,0.4,0.2,0.5,0.3l2.1,2.7l2.1-2.7c0.1-0.2,0.3-0.3,0.5-0.3h2.1c0.2,0,0.4,0.2,0.2,0.5l-3.4,4.5
		l3.7,4.9C44.1,20.5,43.9,20.7,43.7,20.7z M53.6,20.3c0,0.3-0.2,0.5-0.5,0.5h-5.7c-2.1,0-3.3-1.1-3.3-3.1c0-2,1.2-3.1,3.3-3.1h3.6
		c0-1.2-0.4-1.7-1.8-1.7h-4.1c-0.3,0-0.5-0.2-0.5-0.5v-1.4c0-0.3,0.2-0.5,0.5-0.5h4.2c3.1,0,4.1,1.3,4.1,4V20.3z M62.9,20.3
		c0,0.3-0.2,0.5-0.5,0.5h-3.2c-3.2,0-4.5-1.6-4.5-5.2c0-3.6,1.2-5.2,4.5-5.2h3.2c0.3,0,0.5,0.2,0.5,0.5v1.4c0,0.3-0.2,0.5-0.5,0.5
		h-2.9c-1.6,0-2.2,0.8-2.2,2.8c0,2.1,0.6,2.8,2.2,2.8h2.9c0.3,0,0.5,0.2,0.5,0.5V20.3z M69.6,20.3c0,0.3-0.2,0.5-0.5,0.5h-2.2
		c-2.1,0-3.1-1-3.1-3.1V8.9c0-0.3,0.2-0.5,0.5-0.5h1.6c0.3,0,0.5,0.2,0.5,0.5v1.5H69c0.3,0,0.5,0.2,0.5,0.5v1.4
		c0,0.3-0.2,0.5-0.5,0.5h-2.6v4.7c0,0.6,0.3,1,0.8,1h2c0.3,0,0.5,0.2,0.5,0.5V20.3z" />
</g>
</svg>
