<?xml version="1.0" encoding="utf-8"?>
<!-- Generator: Adobe Illustrator 17.0.0, SVG Export Plug-In . SVG Version: 6.00 Build 0)  -->
<!DOCTYPE svg PUBLIC "-//W3C//DTD SVG 1.1//EN" "http://www.w3.org/Graphics/SVG/1.1/DTD/svg11.dtd">
<svg version="1.1" xmlns="http://www.w3.org/2000/svg" xmlns:xlink="http://www.w3.org/1999/xlink" x="0px" y="0px" width="160px"
	 height="160px" viewBox="0 0 160 160" enable-background="new 0 0 160 160" xml:space="preserve">

<g id="lightbulb_x5F_icon.svg">
	<g>
		<path fill="#333333" d="M114.237,75.647c-5.776,6.362-13.394,15.319-14.063,24.276c2.428,1.423,3.935,4.102,3.935,6.864
			c0,2.009-0.753,3.935-2.093,5.357c1.34,1.423,2.093,3.348,2.093,5.357c0,2.762-1.423,5.273-3.767,6.78
			c0.669,1.172,1.088,2.595,1.088,3.935c0,5.44-4.27,8.036-9.124,8.036c-2.177,4.854-7.032,8.036-12.306,8.036
			s-10.129-3.182-12.306-8.036c-4.855,0-9.124-2.596-9.124-8.036c0-1.34,0.418-2.763,1.088-3.935
			c-2.344-1.507-3.767-4.019-3.767-6.78c0-2.01,0.753-3.935,2.093-5.357c-1.34-1.423-2.093-3.349-2.093-5.357
			c0-2.763,1.507-5.441,3.935-6.864c-0.67-8.957-8.288-17.914-14.063-24.276c-5.776-6.361-8.622-13.812-8.622-22.434
			c0-22.769,21.681-37.502,42.859-37.502s42.859,14.733,42.859,37.502C122.859,61.835,120.014,69.285,114.237,75.647z M80,26.426
			c-15.151,0-32.145,10.045-32.145,26.787c0,5.358,2.176,10.966,5.692,15.068c1.59,1.842,3.432,3.6,5.105,5.525
			c5.944,7.115,10.967,15.486,11.804,24.945h19.086c0.837-9.459,5.859-17.83,11.803-24.945c1.675-1.926,3.516-3.684,5.106-5.525
			c3.516-4.102,5.692-9.71,5.692-15.068C112.145,36.471,95.151,26.426,80,26.426z M96.072,55.892c-1.423,0-2.679-1.256-2.679-2.679
			c0-5.776-8.957-8.036-13.394-8.036c-1.423,0-2.679-1.256-2.679-2.679s1.256-2.679,2.679-2.679c7.785,0,18.751,4.102,18.751,13.394
			C98.751,54.636,97.495,55.892,96.072,55.892z"/>
	</g>
</g>

</svg>
